HIERARCHY
ROOT Hips
{
	OFFSET 0.000000 0.000000 0.000000
	CHANNELS 6 Xposition Yposition Zposition Zrotation Yrotation Xrotation 
	JOINT LowerBack
	{
		OFFSET 0.000000 0.000000 0.000000
		CHANNELS 3 Zrotation Yrotation Xrotation
		JOINT Spine
		{
			OFFSET 0.028270 2.035590 -0.193380
			CHANNELS 3 Zrotation Yrotation Xrotation
			JOINT Spine1
			{
				OFFSET 0.056720 2.048850 -0.042750
				CHANNELS 3 Zrotation Yrotation Xrotation
				JOINT Neck
				{
					OFFSET 0.000000 0.000000 0.000000
					CHANNELS 3 Zrotation Yrotation Xrotation
					JOINT Neck1
					{
						OFFSET -0.054170 1.746240 0.172020
						CHANNELS 3 Zrotation Yrotation Xrotation
						JOINT Head
						{
							OFFSET 0.104070 1.761360 -0.123970
							CHANNELS 3 Zrotation Yrotation Xrotation
							End Site
							{
								OFFSET 0.000000 0.000000 0.000000
							}
						}
					}
				}
				JOINT LeftShoulder
				{
					OFFSET 0.000000 0.000000 0.000000
					CHANNELS 3 Zrotation Yrotation Xrotation
					JOINT LeftArm
					{
						OFFSET 3.362410 1.200890 -0.311210
						CHANNELS 3 Zrotation Yrotation Xrotation
						JOINT LeftForeArm
						{
							OFFSET 4.983000 -0.000000 -0.000000
							CHANNELS 3 Zrotation Yrotation Xrotation
							JOINT LeftHand
							{
								OFFSET 3.483560 -0.000000 -0.000000
								CHANNELS 3 Zrotation Yrotation Xrotation
								JOINT LeftFingerBase
								{
									OFFSET 0.000000 0.000000 0.000000
									CHANNELS 3 Zrotation Yrotation Xrotation
									JOINT LeftHandIndex1
									{
										OFFSET 0.715260 -0.000000 -0.000000
										CHANNELS 3 Zrotation Yrotation Xrotation
										End Site
										{
											OFFSET 0.000000 0.000000 0.000000
										}
									}
								}
								JOINT LThumb
								{
									OFFSET 0.000000 0.000000 0.000000
									CHANNELS 3 Zrotation Yrotation Xrotation
									End Site
									{
										OFFSET 0.000000 0.000000 0.000000
									}
								}
							}
						}
					}
				}
				JOINT RightShoulder
				{
					OFFSET 0.000000 0.000000 0.000000
					CHANNELS 3 Zrotation Yrotation Xrotation
					JOINT RightArm
					{
						OFFSET -3.136600 1.374050 -0.404650
						CHANNELS 3 Zrotation Yrotation Xrotation
						JOINT RightForeArm
						{
							OFFSET -5.241900 -0.000000 -0.000000
							CHANNELS 3 Zrotation Yrotation Xrotation
							JOINT RightHand
							{
								OFFSET -3.444170 -0.000000 -0.000000
								CHANNELS 3 Zrotation Yrotation Xrotation
								JOINT RightFingerBase
								{
									OFFSET 0.000000 0.000000 0.000000
									CHANNELS 3 Zrotation Yrotation Xrotation
									JOINT RightHandIndex1
									{
										OFFSET -0.622530 -0.000000 -0.000000
										CHANNELS 3 Zrotation Yrotation Xrotation
										End Site
										{
											OFFSET 0.000000 0.000000 0.000000
										}
									}
								}
								JOINT RThumb
								{
									OFFSET 0.000000 0.000000 0.000000
									CHANNELS 3 Zrotation Yrotation Xrotation
									End Site
									{
										OFFSET 0.000000 0.000000 0.000000
									}
								}
							}
						}
					}
				}
			}
		}
	}
}
}
MOTION
Frames: 9
Frame Time: 0.008333
-9.216686 16.587226 0.144928 -14.952633 84.137624 3.064525 5.793424 -3.169884 2.937655 -0.052248 -3.504682 -1.783005 -8.628720 -3.452155 1.989861 10.131639 -7.172194 -7.299307 -4.078412 -0.298253 -0.071149 0.000000 0.000000 0.000000 1.754551 8.906727 3.262730 -18.895156 -5.765617 4.014939 -0.520967 -80.461105 0.030704 -8.809308 -1.496201 0.131411 0.024529 0.199456 0.000000 0.000000 0.000000 0.000000 0.000000 0.000000 0.000000 19.191325 -5.450913 1.300114 62.309734 3.066447 -12.446153 3.630934 24.685101 0.017728 3.250953 7.817597 0.220064 0.081105 -0.099295 -0.000000 0.000000 0.000000 0.000000 0.000000 0.000000 0.000000 
-9.003442 16.593364 0.147334 -21.658808 84.465782 -3.609286 6.611480 -3.134836 3.011787 0.125182 -3.500262 -1.796433 -8.601879 -3.453921 1.949854 9.951758 -6.703165 -7.193647 -4.105319 -0.300775 -0.045093 0.000000 0.000000 0.000000 1.453650 8.997900 3.300977 -19.893873 -5.119421 5.056147 -0.601022 -79.699609 0.029135 -8.883033 -1.525146 0.133583 0.014523 0.185089 0.000000 0.000000 0.000000 0.000000 0.000000 0.000000 0.000000 19.026811 -5.005561 1.309023 62.145553 3.744013 -13.026475 3.660825 23.707791 0.017643 3.153374 7.823702 0.213453 0.081419 -0.100298 -0.000000 0.000000 0.000000 0.000000 0.000000 0.000000 0.000000 
-8.794265 16.605554 0.150873 -28.364259 84.775763 -10.283619 7.296225 -3.098673 3.086659 0.275511 -3.487901 -1.811568 -8.566156 -3.448132 1.903869 9.798429 -6.205247 -7.056113 -4.130463 -0.303427 -0.010509 0.000000 0.000000 0.000000 1.203862 9.027345 3.328821 -21.032466 -4.460834 6.156932 -0.690954 -78.826041 0.027458 -8.958247 -1.539234 0.134554 0.004632 0.170178 0.000000 0.000000 0.000000 0.000000 0.000000 0.000000 0.000000 18.875887 -4.543200 1.316483 62.013698 4.473132 -13.580176 3.688119 22.680978 0.017576 3.083233 7.845914 0.209241 0.081377 -0.101291 -0.000000 0.000000 0.000000 0.000000 0.000000 0.000000 0.000000 
-8.589272 16.623510 0.156134 -34.951048 85.065658 -16.834395 7.834002 -3.056345 3.157094 0.395285 -3.462717 -1.828011 -8.524102 -3.429674 1.856241 9.677695 -5.691204 -6.893509 -4.152795 -0.306065 0.030916 0.000000 0.000000 0.000000 0.996463 9.017219 3.346036 -22.264678 -3.817685 7.313371 -0.790703 -77.835221 0.025673 -9.035381 -1.536434 0.134224 -0.004971 0.154856 -0.000000 0.000000 0.000000 0.000000 0.000000 0.000000 0.000000 18.746241 -4.073009 1.321431 61.914805 5.256654 -14.095645 3.713314 21.628916 0.017543 3.055391 7.879234 0.208230 0.080937 -0.102274 -0.000000 0.000000 0.000000 0.000000 0.000000 0.000000 0.000000 
-8.388440 16.646884 0.163691 -41.345763 85.344758 -23.183248 8.215981 -3.005435 3.219015 0.482284 -3.422639 -1.846016 -8.477402 -3.396457 1.808072 9.593819 -5.175264 -6.710639 -4.171650 -0.308620 0.078064 0.000000 0.000000 0.000000 0.834314 8.963478 3.352985 -23.567404 -3.176891 8.513783 -0.899426 -76.734655 0.023781 -9.121660 -1.515001 0.132487 -0.014015 0.139168 0.000000 0.000000 0.000000 0.000000 0.000000 0.000000 0.000000 18.643841 -3.606054 1.324785 61.847004 6.095006 -14.548449 3.736614 20.577739 0.017557 3.075563 7.921835 0.210820 0.080115 -0.103273 -0.000000 0.000000 0.000000 0.000000 0.000000 0.000000 0.000000 
-8.191634 16.675305 0.173918 -47.564872 85.629471 -29.341966 8.439497 -2.945942 3.268350 0.535665 -3.368247 -1.865571 -8.427903 -3.348938 1.761263 9.547661 -4.666799 -6.513919 -4.186447 -0.311010 0.129264 0.000000 0.000000 0.000000 0.710191 8.875952 3.351674 -24.904821 -2.547651 9.752607 -1.016575 -75.527376 0.021772 -9.220093 -1.471765 0.129043 -0.022409 0.123187 0.000000 0.000000 0.000000 0.000000 0.000000 0.000000 0.000000 18.570992 -3.148619 1.326633 61.811340 6.981899 -14.925543 3.757842 19.560779 0.017623 3.151521 7.967207 0.217410 0.078886 -0.104296 -0.000000 0.000000 0.000000 0.000000 0.000000 0.000000 0.000000 
-7.998610 16.708398 0.186826 -53.750725 85.935812 -35.447692 8.507985 -2.879210 3.300592 0.556221 -3.301661 -1.887465 -8.375851 -3.289253 1.715402 9.535727 -4.173729 -6.308271 -4.196677 -0.313186 0.183266 0.000000 0.000000 0.000000 0.620335 8.751310 3.344355 -26.258970 -1.918147 11.017665 -1.141414 -74.221906 0.019643 -9.336397 -1.404560 0.123789 -0.030069 0.106977 0.000000 0.000000 0.000000 0.000000 0.000000 0.000000 0.000000 18.523918 -2.705734 1.328213 61.807469 7.908869 -15.206624 3.776856 18.611264 0.017743 3.285281 8.010719 0.228203 0.077261 -0.105376 -0.000000 0.000000 0.000000 0.000000 0.000000 0.000000 0.000000 
-7.809039 16.745773 0.202168 -60.155863 86.273748 -41.747985 8.428487 -2.806652 3.311519 0.545736 -3.225073 -1.912564 -8.320077 -3.219629 1.669849 9.551269 -3.705843 -6.099031 -4.201759 -0.315092 0.238691 0.000000 0.000000 0.000000 0.562750 8.584369 3.332458 -27.625174 -1.272789 12.291675 -1.273348 -72.825141 0.017392 -9.476206 -1.313076 0.116723 -0.036932 0.090651 0.000000 0.000000 0.000000 0.000000 0.000000 0.000000 0.000000 18.494941 -2.284563 1.331056 61.831949 8.871914 -15.358368 3.793790 17.757077 0.017919 3.470810 8.051133 0.242798 0.075310 -0.106550 -0.000000 0.000000 0.000000 0.000000 0.000000 0.000000 0.000000 
-7.622481 16.786996 0.219426 -67.118397 86.642930 -48.577337 8.212525 -2.728525 3.299496 0.506782 -3.139420 -1.941257 -8.259131 -3.140998 1.623921 9.584308 -3.267446 -5.891587 -4.201089 -0.316659 0.294061 0.000000 0.000000 0.000000 0.528580 8.380477 3.317626 -28.994999 -0.610074 13.558498 -1.412035 -71.340839 0.015023 -9.639994 -1.198151 0.107646 -0.043073 0.074371 0.000000 0.000000 0.000000 0.000000 0.000000 0.000000 0.000000 18.471797 -1.885852 1.336197 61.883073 9.862056 -15.354866 3.808823 17.027260 0.018154 3.704255 8.084922 0.260793 0.073079 -0.107848 -0.000000 0.000000 0.000000 0.000000 0.000000 0.000000 0.000000 
